<?xml version="1.0" encoding="utf-8"?>
<!-- Generator: Adobe Illustrator 16.0.3, SVG Export Plug-In . SVG Version: 6.00 Build 0)  -->
<!DOCTYPE svg PUBLIC "-//W3C//DTD SVG 1.1//EN" "http://www.w3.org/Graphics/SVG/1.1/DTD/svg11.dtd">
<svg version="1.1" id="Capa_1" xmlns="http://www.w3.org/2000/svg" xmlns:xlink="http://www.w3.org/1999/xlink" x="0px" y="0px"
	 width="518px" height="222px" viewBox="0 0 518 222" enable-background="new 0 0 518 222" xml:space="preserve">
<path fill="#D02400" d="M509,202c0,6.627-5.373,12-12,12H273c-6.627,0-12-5.373-12-12V21c0-6.627,5.373-12,12-12h224
	c6.627,0,12,5.373,12,12V202z"/>
<path fill="#FFFFFF" stroke="#FF0000" stroke-miterlimit="10" d="M420.548,205.812C319.74,105.003,342.359,66.615,342.359,66.615
	s8.203-23.02,36.715-23.02c28.514,0,41.474,25.905,41.474,25.905h0.104c0,0,12.959-25.905,41.474-25.905
	c28.513,0,36.715,22.882,36.715,22.882s22.619,38.457-78.188,139.265"/>
<g>
	<path fill="#45E6FF" d="M7.171,67.983c0-1.31,0.45-2.43,1.363-3.33c0.907-0.913,2.016-1.371,3.337-1.371
		c1.308,0,2.423,0.458,3.33,1.371c0.913,0.9,1.363,2.021,1.363,3.33v42.585H64.91V67.983c0-1.31,0.457-2.43,1.363-3.33
		c0.913-0.913,2.022-1.371,3.337-1.371c1.313,0,2.423,0.458,3.336,1.371c0.906,0.9,1.361,2.021,1.361,3.33v87.441
		c0,1.322-0.455,2.43-1.361,3.33c-0.913,0.913-2.024,1.371-3.336,1.371c-1.314,0-2.424-0.458-3.337-1.371
		c-0.906-0.9-1.363-2.008-1.363-3.33v-35.458H16.563v35.458c0,1.322-0.45,2.43-1.363,3.33c-0.906,0.913-2.022,1.371-3.33,1.371
		c-1.321,0-2.43-0.458-3.337-1.371c-0.913-0.9-1.363-2.008-1.363-3.33V67.983z"/>
	<path fill="#45E6FF" d="M97.187,127.995c0.505,3.232,1.566,6.241,3.183,9.019c1.614,2.774,3.612,5.179,5.987,7.203
		c2.375,2.021,5.075,3.613,8.109,4.772c3.035,1.16,6.217,1.738,9.547,1.738c3.736,0,7.22-0.679,10.458-2.047
		c3.233-1.358,6.113-3.255,8.641-5.686c0.906-0.9,2.016-1.358,3.336-1.358c1.308,0,2.423,0.458,3.33,1.358
		c0.913,0.913,1.363,2.021,1.363,3.343c0,1.306-0.45,2.417-1.363,3.327c-3.33,3.739-7.099,6.391-11.292,7.957
		c-4.194,1.566-9.017,2.355-14.473,2.355c-5.05,0-9.774-0.913-14.171-2.726c-4.391-1.826-8.257-4.354-11.593-7.586
		c-3.33-3.229-5.963-7.066-7.882-11.517c-1.917-4.441-2.88-9.288-2.88-14.542c0-5.058,0.937-9.782,2.805-14.171
		c1.87-4.402,4.448-8.239,7.728-11.52c3.288-3.281,7.178-5.906,11.674-7.882c4.495-1.972,9.366-3.057,14.621-3.255
		c4.749,0,9.324,0.962,13.722,2.875c4.391,1.923,8.257,4.548,11.593,7.881c3.33,3.327,6.005,7.203,8.029,11.592
		c2.022,4.393,3.033,9.116,3.033,14.171c0,1.517-0.512,2.677-1.517,3.489c-1.01,0.802-2.071,1.208-3.182,1.208H97.187z
		 M150.838,118.599c-0.604-3.135-1.72-6.056-3.33-8.794c-1.623-2.726-3.614-5.068-5.989-7.043c-2.373-1.972-5.055-3.538-8.034-4.698
		s-6.135-1.738-9.472-1.738c-3.33,0-6.495,0.579-9.472,1.738c-2.979,1.16-5.656,2.726-8.029,4.698
		c-2.375,1.975-4.349,4.317-5.915,7.043c-1.566,2.739-2.651,5.659-3.255,8.794H150.838z"/>
	<path fill="#45E6FF" d="M236.618,146.337c-3.336,3.736-7.352,6.943-12.05,9.62c-4.699,2.674-9.776,4.019-15.234,4.019
		c-5.048,0-9.774-0.913-14.165-2.726c-4.396-1.826-8.263-4.354-11.593-7.586c-3.335-3.229-5.963-7.066-7.88-11.517
		c-1.925-4.441-2.88-9.288-2.88-14.542c0-5.058,0.931-9.831,2.799-14.331c1.87-4.49,4.448-8.414,7.734-11.741
		c3.28-3.333,7.172-5.958,11.668-7.881c4.495-1.914,9.366-2.875,14.626-2.875c4.847,0,9.473,0.975,13.862,2.947
		c4.397,1.976,8.265,4.626,11.595,7.957c3.336,3.343,5.987,7.229,7.959,11.679c1.969,4.441,2.955,9.188,2.955,14.246v31.968
		c0,1.319-0.457,2.43-1.363,3.343c-0.913,0.9-2.022,1.355-3.336,1.355c-1.313,0-2.424-0.455-3.336-1.355
		c-0.907-0.913-1.361-2.024-1.361-3.343V146.337z M236.618,123.605c0-3.736-0.71-7.277-2.122-10.62
		c-1.419-3.33-3.362-6.228-5.835-8.707c-2.479-2.479-5.383-4.415-8.713-5.835c-3.336-1.417-6.876-2.118-10.614-2.118
		c-3.736,0-7.245,0.702-10.532,2.118c-3.28,1.42-6.16,3.356-8.632,5.835c-2.479,2.479-4.421,5.377-5.841,8.707
		c-1.412,3.343-2.12,6.884-2.12,10.62c0,3.736,0.708,7.238,2.12,10.533c1.42,3.281,3.363,6.153,5.841,8.632
		c2.473,2.482,5.353,4.418,8.632,5.835c3.288,1.42,6.796,2.122,10.532,2.122c3.639,0,7.075-0.679,10.312-2.047
		c3.231-1.358,6.08-3.255,8.559-5.686c2.474-2.417,4.446-5.279,5.915-8.561C235.581,131.152,236.413,127.54,236.618,123.605z"/>
	<path fill="#45E6FF" d="M256.474,67.983c0-1.31,0.455-2.43,1.361-3.33c0.908-0.913,2.024-1.371,3.336-1.371
		c1.308,0,2.424,0.458,3.33,1.371c0.913,0.9,1.37,2.021,1.37,3.33v87.441c0,1.322-0.457,2.43-1.37,3.33
		c-0.906,0.913-2.022,1.371-3.33,1.371c-1.313,0-2.428-0.458-3.336-1.371c-0.906-0.9-1.361-2.008-1.361-3.33V67.983z"/>
</g>
<path fill="#45E6FF" d="M288.215,64.878c0-1.405,0.488-2.607,1.46-3.572c0.979-0.979,2.171-1.471,3.579-1.471
	c1.41,0,2.6,0.491,3.579,1.471c0.972,0.965,1.462,2.167,1.462,3.572v19.829h10.841c1.424,0,2.626,0.491,3.612,1.471
	c0.986,0.965,1.476,2.167,1.476,3.572c0,1.415-0.49,2.603-1.476,3.572c-0.986,0.979-2.188,1.467-3.612,1.467h-10.841v63.887
	c0,1.418-0.483,2.606-1.441,3.571c-0.96,0.979-2.131,1.471-3.52,1.471c-1.383,0-2.56-0.491-3.52-1.471
	c-0.958-0.965-1.436-2.153-1.436-3.571V94.789h-10.842c-1.422,0-2.626-0.488-3.61-1.467c-0.986-0.969-1.483-2.157-1.483-3.572
	c0-1.405,0.49-2.607,1.469-3.572c0.972-0.979,2.164-1.471,3.572-1.471h10.73V64.878z"/>
<path fill="#45E6FF" d="M323.43,64.878c0-1.405,0.49-2.607,1.469-3.572c0.973-0.979,2.163-1.471,3.572-1.471
	s2.607,0.491,3.579,1.471c0.973,0.965,1.462,2.167,1.462,3.572v27.305c2.494-2.157,5.365-3.903,8.618-5.2
	c3.248-1.296,6.716-1.945,10.406-1.945c4.01,0,7.799,0.756,11.378,2.276c3.579,1.509,6.688,3.6,9.347,6.259
	c2.652,2.659,4.743,5.768,6.257,9.34c1.516,3.586,2.275,7.367,2.275,11.378v44.385c0,1.418-0.482,2.606-1.462,3.571
	c-0.972,0.979-2.169,1.471-3.579,1.471c-1.408,0-2.6-0.491-3.572-1.471c-0.978-0.965-1.46-2.153-1.46-3.571v-44.385
	c0-2.593-0.516-5.053-1.549-7.395c-1.032-2.332-2.413-4.353-4.147-6.088c-1.734-1.732-3.764-3.095-6.094-4.074
	c-2.335-0.965-4.795-1.454-7.395-1.454c-2.606,0-5.039,0.488-7.315,1.454c-2.276,0.979-4.287,2.275-6.02,3.903
	c-1.734,1.627-3.09,3.558-4.062,5.768c-0.979,2.224-1.521,4.593-1.627,7.078v45.193c0,1.522-0.463,2.739-1.383,3.666
	c-0.918,0.913-2.136,1.376-3.658,1.376c-1.41,0-2.573-0.491-3.492-1.471c-0.92-0.965-1.436-2.153-1.549-3.571V64.878z"/>
<polyline fill="none" stroke="#45E6FF" stroke-width="8" stroke-linecap="round" stroke-miterlimit="10" points="469.763,43.445 
	418.776,182.808 403.997,90.606 "/>
<line fill="none" stroke="#45E6FF" stroke-width="2" stroke-linecap="round" stroke-miterlimit="10" x1="472.763" y1="43.445" x2="410.667" y2="214"/>
</svg>
